<svg class="logo-brand-out" fill="none" height="46" viewBox="0 0 40 46" width="40" xmlns="http://www.w3.org/2000/svg"><path d="M13.929 0.600006C10.9512 0.600006 8.53387 2.79378 8.45351 5.52701L8.44505 5.51432C8.44505 5.51432 8.50638 6.62919 7.27338 6.88093L7.28819 6.88305C4.96178 7.46904 3.2487 9.43223 3.2487 11.7677C3.2487 12.3432 3.35656 12.8932 3.54901 13.4094L3.54267 13.4051C3.54055 13.4009 3.5469 13.4115 3.55747 13.4284C3.59977 13.5384 3.63996 13.6484 3.6886 13.7542C3.79434 14.1202 3.83241 14.6914 3.24658 15.0658C3.21486 15.0827 3.18525 15.1018 3.15352 15.1187C3.107 15.1441 3.06258 15.1695 3.00971 15.1927L3.02663 15.1885C1.45313 16.0791 0.399902 17.6785 0.399902 19.5084C0.399902 20.5027 0.715025 21.4271 1.2501 22.2099L1.23952 22.2035C1.23952 22.2035 2.14894 23.367 1.55888 24.3C1.48274 24.3909 1.4066 24.4798 1.33681 24.575C1.33681 24.575 1.33681 24.575 1.33681 24.5771C0.744634 25.3852 0.399902 26.3605 0.399902 27.4098C0.399902 28.916 1.11474 30.2657 2.24411 31.1923V31.1986C2.24411 31.1986 3.01817 31.8375 2.67767 33.0603L2.68613 33.0518C2.43445 33.6336 2.29275 34.2661 2.29275 34.9283C2.29275 37.5938 4.52188 39.777 7.35164 39.978L7.248 40.0118C7.248 40.0118 8.24836 40.0689 8.52118 41.2282L8.52964 41.1965C8.97378 43.5828 11.2198 45.4 13.9269 45.4C16.8666 45.4 19.2586 43.2591 19.3982 40.5745L19.4109 40.5788C19.4109 40.5788 19.4109 26.041 19.4109 25.9649C19.4109 25.8887 19.3178 25.7322 19.1592 25.7533C18.2942 25.8655 14.3732 26.4916 14.2188 26.5149C14.0348 26.5424 13.9777 26.3626 13.9946 26.2843C14.0115 26.2061 19.4109 5.67087 19.4109 5.67087C19.413 2.86994 16.9576 0.600006 13.929 0.600006Z" fill="white"></path><path d="M38.7602 22.2035L38.7496 22.2099C39.2847 21.4271 39.5998 20.5027 39.5998 19.5084C39.5998 17.6785 38.5465 16.0791 36.9731 15.1885L36.99 15.1927C36.9392 15.1695 36.8948 15.1462 36.8504 15.1208C36.8165 15.1039 36.7869 15.0827 36.7531 15.0658C36.1694 14.6914 36.2053 14.1202 36.3132 13.7542C36.3618 13.6484 36.402 13.5384 36.4443 13.4284C36.4528 13.4115 36.4612 13.4009 36.4591 13.4051L36.4507 13.4094C36.641 12.8932 36.751 12.3432 36.751 11.7677C36.751 9.43223 35.0379 7.46904 32.7115 6.88305L32.7263 6.88093C31.4912 6.62919 31.5546 5.51432 31.5546 5.51432L31.5462 5.52701C31.4658 2.79378 29.0485 0.600006 26.0707 0.600006C23.0421 0.600006 20.5867 2.86994 20.5867 5.66875C20.5867 5.66875 20.5867 20.1176 20.5867 20.2742C20.5867 20.4307 20.7347 20.4942 20.8193 20.4836C20.8891 20.4752 24.8482 19.8405 25.7746 19.7199C25.9543 19.6966 26.0178 19.887 25.9945 19.9949C25.9713 20.1049 20.5867 40.5788 20.5867 40.5788L20.5994 40.5745C20.7368 43.2612 23.1309 45.4 26.0707 45.4C28.7799 45.4 31.0238 43.5828 31.4679 41.1965L31.4764 41.2282C31.7492 40.0711 32.7496 40.0118 32.7496 40.0118L32.6459 39.978C35.4757 39.777 37.7048 37.5959 37.7048 34.9283C37.7048 34.264 37.5631 33.6315 37.3114 33.0518L37.3199 33.0603C36.9794 31.8375 37.7535 31.1986 37.7535 31.1986V31.1923C38.8828 30.2636 39.5977 28.916 39.5977 27.4098C39.5977 26.2357 39.162 25.1589 38.4366 24.3C37.8507 23.3649 38.7602 22.2035 38.7602 22.2035Z" fill="white"></path></svg>